<?xml version="1.0" encoding="utf-8"?>
<svg id="master-artboard" viewBox="0 0 1400 1400" version="1.1" xmlns="http://www.w3.org/2000/svg" x="0px" y="0px" width="1400px" height="1400px" enable-background="new 0 0 1400 1400" xmlns:xlink="http://www.w3.org/1999/xlink">
<g id="XMLID_1_" transform="matrix(1, 0, 0, 1, 1.4210854715202004e-14, 7.105427357601002e-15)">
		<g id="XMLID_572_">
			<path d="M 0 0 H 1400 V 1400 H 0 V 0 Z" id="XMLID_571_" fill="#FFFFFF"/>
			<g id="XMLID_544_">
				<defs>
					<path d="M 0 0 H 1400 V 1400 H 0 V 0 Z" id="XMLID_484_"/>
				</defs>
				<linearGradient id="XMLID_23_" gradientUnits="userSpaceOnUse" x1="699.9979" y1="1575" x2="699.9979" y2="-55.828">
					<stop offset="0" style="stop-color:#FF00D6"/>
					<stop offset="0.5328" style="stop-color:#250090"/>
					<stop offset="1" style="stop-color:#00002E"/>
				</linearGradient>
				<use overflow="visible" fill="url(#XMLID_23_)" xlink:href="#XMLID_484_"/>
				<clipPath id="XMLID_24_">
					<use overflow="visible" xlink:href="#XMLID_484_"/>
				</clipPath>
				<g id="XMLID_512_" clip-path="url(#XMLID_24_)">
					<g id="XMLID_531_">
						<linearGradient id="XMLID_25_" gradientUnits="userSpaceOnUse" x1="699.9982" y1="1219" x2="699.9982" y2="-514.1821">
							<stop offset="0" style="stop-color:#FF00D6;stop-opacity:0"/>
							<stop offset="0.5328" style="stop-color:#250090"/>
							<stop offset="1" style="stop-color:#00002E"/>
						</linearGradient>
						<path id="XMLID_541_" fill="url(#XMLID_25_)" d="M700,838.7c-76.5,0-138.7-62.2-138.7-138.7S623.5,561.3,700,561.3&#10;&#9;&#9;&#9;&#9;&#9;&#9;&#9;S838.7,623.5,838.7,700S776.5,838.7,700,838.7z M700,633.2c-36.8,0-66.8,29.9-66.8,66.8c0,36.8,29.9,66.8,66.8,66.8&#10;&#9;&#9;&#9;&#9;&#9;&#9;&#9;c36.8,0,66.8-29.9,66.8-66.8C766.8,663.2,736.8,633.2,700,633.2z"/>
					</g>
					<g id="XMLID_530_">
						<linearGradient id="XMLID_26_" gradientUnits="userSpaceOnUse" x1="699.9982" y1="1219" x2="699.9982" y2="-514.1821">
							<stop offset="0" style="stop-color:#FF00D6;stop-opacity:0"/>
							<stop offset="0.5328" style="stop-color:#250090"/>
							<stop offset="1" style="stop-color:#00002E"/>
						</linearGradient>
						<path id="XMLID_538_" fill="url(#XMLID_26_)" d="M700,981.5c-75.2,0-145.9-29.3-199-82.4s-82.4-123.8-82.4-199&#10;&#9;&#9;&#9;&#9;&#9;&#9;&#9;s29.3-145.9,82.4-199s123.8-82.4,199-82.4s145.9,29.3,199,82.4s82.4,123.8,82.4,199S952.2,845.9,899,899&#10;&#9;&#9;&#9;&#9;&#9;&#9;&#9;S775.2,981.5,700,981.5z M700,490.4c-115.6,0-209.6,94-209.6,209.6s94,209.6,209.6,209.6s209.6-94,209.6-209.6&#10;&#9;&#9;&#9;&#9;&#9;&#9;&#9;S815.6,490.4,700,490.4z"/>
					</g>
					<g id="XMLID_529_">
						<linearGradient id="XMLID_27_" gradientUnits="userSpaceOnUse" x1="699.9982" y1="1219" x2="699.9982" y2="-514.1821">
							<stop offset="0" style="stop-color:#FF00D6;stop-opacity:0"/>
							<stop offset="0.5328" style="stop-color:#250090"/>
							<stop offset="1" style="stop-color:#00002E"/>
						</linearGradient>
						<path id="XMLID_535_" fill="url(#XMLID_27_)" d="M700,1124.3c-57.3,0-112.8-11.2-165.2-33.4c-50.5-21.4-95.9-52-134.8-90.9&#10;&#9;&#9;&#9;&#9;&#9;&#9;&#9;c-39-39-69.5-84.3-90.9-134.9c-22.1-52.3-33.4-107.9-33.4-165.2c0-57.3,11.2-112.8,33.4-165.2c21.4-50.5,52-95.9,90.9-134.9&#10;&#9;&#9;&#9;&#9;&#9;&#9;&#9;s84.3-69.5,134.8-90.9c52.3-22.1,107.9-33.4,165.2-33.4c57.3,0,112.8,11.2,165.2,33.4c50.5,21.4,95.9,52,134.8,90.9&#10;&#9;&#9;&#9;&#9;&#9;&#9;&#9;c39,39,69.5,84.3,90.9,134.9c22.1,52.3,33.4,107.9,33.4,165.2c0,57.3-11.2,112.8-33.4,165.2c-21.4,50.5-52,95.9-90.9,134.9&#10;&#9;&#9;&#9;&#9;&#9;&#9;&#9;c-39,39-84.3,69.5-134.8,90.9C812.8,1113.1,757.3,1124.3,700,1124.3z M700,347.6c-194.3,0-352.4,158.1-352.4,352.4&#10;&#9;&#9;&#9;&#9;&#9;&#9;&#9;s158.1,352.4,352.4,352.4s352.4-158.1,352.4-352.4S894.3,347.6,700,347.6z"/>
					</g>
					<g id="XMLID_528_">
						<linearGradient id="XMLID_28_" gradientUnits="userSpaceOnUse" x1="699.9982" y1="1219" x2="699.9982" y2="-514.1821">
							<stop offset="0" style="stop-color:#FF00D6;stop-opacity:0"/>
							<stop offset="0.5328" style="stop-color:#250090"/>
							<stop offset="1" style="stop-color:#00002E"/>
						</linearGradient>
						<path id="XMLID_532_" fill="url(#XMLID_28_)" d="M700,1267.1c-76.5,0-150.8-15-220.7-44.6c-67.5-28.6-128.2-69.4-180.2-121.5&#10;&#9;&#9;&#9;&#9;&#9;&#9;&#9;c-52.1-52.1-93-112.7-121.5-180.2c-29.6-69.9-44.6-144.2-44.6-220.7s15-150.8,44.6-220.7C206.1,411.7,246.9,351.1,299,299&#10;&#9;&#9;&#9;&#9;&#9;&#9;&#9;c52.1-52.1,112.7-93,180.2-121.5c69.9-29.6,144.2-44.6,220.7-44.6s150.8,15,220.7,44.6c67.5,28.6,128.2,69.4,180.2,121.5&#10;&#9;&#9;&#9;&#9;&#9;&#9;&#9;c52.1,52.1,93,112.7,121.5,180.2c29.6,69.9,44.6,144.2,44.6,220.7s-15,150.8-44.6,220.7c-28.6,67.5-69.4,128.2-121.5,180.2&#10;&#9;&#9;&#9;&#9;&#9;&#9;&#9;c-52.1,52.1-112.7,93-180.2,121.5C850.8,1252.1,776.5,1267.1,700,1267.1z M700,204.8c-273.1,0-495.2,222.1-495.2,495.2&#10;&#9;&#9;&#9;&#9;&#9;&#9;&#9;s222.1,495.2,495.2,495.2s495.2-222.1,495.2-495.2S973,204.8,700,204.8z"/>
					</g>
					<g id="XMLID_527_">
						<linearGradient id="XMLID_29_" gradientUnits="userSpaceOnUse" x1="699.9982" y1="1219" x2="699.9982" y2="-514.1821">
							<stop offset="0" style="stop-color:#FF00D6;stop-opacity:0"/>
							<stop offset="0.5328" style="stop-color:#250090"/>
							<stop offset="1" style="stop-color:#00002E"/>
						</linearGradient>
						<path id="XMLID_521_" fill="url(#XMLID_29_)" d="M700,1409.9c-95.8,0-188.8-18.8-276.3-55.8&#10;&#9;&#9;&#9;&#9;&#9;&#9;&#9;c-84.5-35.8-160.5-86.9-225.6-152.1c-65.2-65.2-116.4-141.1-152.1-225.6C8.9,888.8-9.9,795.8-9.9,700S8.9,511.2,45.9,423.7&#10;&#9;&#9;&#9;&#9;&#9;&#9;&#9;C81.7,339.1,132.8,263.2,198,198c65.2-65.2,141.1-116.4,225.6-152.1C511.2,8.9,604.2-9.9,700-9.9S888.8,8.9,976.3,45.9&#10;&#9;&#9;&#9;&#9;&#9;&#9;&#9;c84.5,35.8,160.5,86.9,225.6,152.1c65.2,65.2,116.4,141.1,152.1,225.6c37,87.5,55.8,180.5,55.8,276.3s-18.8,188.8-55.8,276.3&#10;&#9;&#9;&#9;&#9;&#9;&#9;&#9;c-35.8,84.5-86.9,160.5-152.1,225.6c-65.2,65.2-141.1,116.4-225.6,152.1C888.8,1391.1,795.8,1409.9,700,1409.9z M700,62&#10;&#9;&#9;&#9;&#9;&#9;&#9;&#9;C348.2,62,62,348.2,62,700s286.2,638,638,638s638-286.2,638-638S1051.8,62,700,62z"/>
					</g>
					<g id="XMLID_526_">
						<linearGradient id="XMLID_30_" gradientUnits="userSpaceOnUse" x1="699.9982" y1="1219" x2="699.9982" y2="-514.1821">
							<stop offset="0" style="stop-color:#FF00D6;stop-opacity:0"/>
							<stop offset="0.5328" style="stop-color:#250090"/>
							<stop offset="1" style="stop-color:#00002E"/>
						</linearGradient>
						<path id="XMLID_518_" fill="url(#XMLID_30_)" d="M700,1552.7c-115.1,0-226.8-22.6-331.9-67c-101.5-42.9-192.7-104.4-271-182.7&#10;&#9;&#9;&#9;&#9;&#9;&#9;&#9;c-78.3-78.3-139.8-169.5-182.7-271c-44.5-105.1-67-216.8-67-331.9s22.6-226.8,67-331.9C-42.7,266.5,18.7,175.3,97,97&#10;&#9;&#9;&#9;&#9;&#9;&#9;&#9;s169.5-139.8,271-182.7c105.1-44.5,216.8-67,331.9-67s226.8,22.6,331.9,67C1133.5-42.7,1224.7,18.7,1303,97&#10;&#9;&#9;&#9;&#9;&#9;&#9;&#9;c78.3,78.3,139.8,169.5,182.7,271c44.5,105.1,67,216.8,67,331.9s-22.6,226.8-67,331.9c-42.9,101.5-104.4,192.7-182.7,271&#10;&#9;&#9;&#9;&#9;&#9;&#9;&#9;c-78.3,78.3-169.5,139.8-271,182.7C926.8,1530.2,815.1,1552.7,700,1552.7z M700-80.8C269.5-80.8-80.8,269.5-80.8,700&#10;&#9;&#9;&#9;&#9;&#9;&#9;&#9;s350.3,780.8,780.8,780.8s780.8-350.3,780.8-780.8S1130.5-80.8,700-80.8z"/>
					</g>
					<g id="XMLID_525_">
						<linearGradient id="XMLID_31_" gradientUnits="userSpaceOnUse" x1="699.9984" y1="1219" x2="699.9984" y2="-514.1821">
							<stop offset="0" style="stop-color:#FF00D6;stop-opacity:0"/>
							<stop offset="0.5328" style="stop-color:#250090"/>
							<stop offset="1" style="stop-color:#00002E"/>
						</linearGradient>
						<path id="XMLID_515_" fill="url(#XMLID_31_)" d="M700,1695.5c-134.4,0-264.8-26.3-387.5-78.2&#10;&#9;&#9;&#9;&#9;&#9;&#9;&#9;c-118.6-50.1-225-121.9-316.4-213.3c-91.4-91.4-163.2-197.9-213.3-316.4c-51.9-122.8-78.2-253.1-78.2-387.5&#10;&#9;&#9;&#9;&#9;&#9;&#9;&#9;s26.3-264.8,78.2-387.5C-167.1,193.9-95.4,87.5-3.9-3.9c91.4-91.4,197.9-163.2,316.4-213.3c122.8-51.9,253.1-78.2,387.5-78.2&#10;&#9;&#9;&#9;&#9;&#9;&#9;&#9;s264.8,26.3,387.5,78.2c118.6,50.1,225,121.9,316.4,213.3c91.4,91.4,163.2,197.9,213.3,316.4&#10;&#9;&#9;&#9;&#9;&#9;&#9;&#9;c51.9,122.8,78.2,253.1,78.2,387.5s-26.3,264.8-78.2,387.5c-50.1,118.6-121.9,225-213.3,316.4&#10;&#9;&#9;&#9;&#9;&#9;&#9;&#9;c-91.4,91.4-197.9,163.2-316.4,213.3C964.8,1669.2,834.4,1695.5,700,1695.5z M700-223.6c-509.3,0-923.6,414.3-923.6,923.6&#10;&#9;&#9;&#9;&#9;&#9;&#9;&#9;s414.3,923.6,923.6,923.6s923.6-414.3,923.6-923.6S1209.3-223.6,700-223.6z"/>
					</g>
					<g id="XMLID_524_">
						<linearGradient id="XMLID_32_" gradientUnits="userSpaceOnUse" x1="699.9979" y1="1219" x2="699.9979" y2="-514.1821">
							<stop offset="0" style="stop-color:#FF00D6;stop-opacity:0"/>
							<stop offset="0.5328" style="stop-color:#250090"/>
							<stop offset="1" style="stop-color:#00002E"/>
						</linearGradient>
						<path id="XMLID_485_" fill="url(#XMLID_32_)" d="M700,1838.3c-153.7,0-302.7-30.1-443.1-89.5c-67.5-28.5-132.5-63.8-193.4-105&#10;&#9;&#9;&#9;&#9;&#9;&#9;&#9;c-60.3-40.7-116.9-87.5-168.4-139c-51.5-51.5-98.3-108.2-139-168.4c-41.1-60.9-76.4-125.9-105-193.4&#10;&#9;&#9;&#9;&#9;&#9;&#9;&#9;c-59.4-140.4-89.5-289.4-89.5-443.1s30.1-302.7,89.5-443.1c28.5-67.5,63.8-132.5,105-193.4c40.7-60.3,87.5-116.9,139-168.4&#10;&#9;&#9;&#9;&#9;&#9;&#9;&#9;c51.5-51.5,108.2-98.3,168.4-139c60.9-41.1,125.9-76.4,193.4-105c140.4-59.4,289.4-89.5,443.1-89.5s302.7,30.1,443.1,89.5&#10;&#9;&#9;&#9;&#9;&#9;&#9;&#9;c67.5,28.5,132.5,63.8,193.4,105c60.3,40.7,116.9,87.5,168.4,139c51.5,51.5,98.3,108.2,139,168.4&#10;&#9;&#9;&#9;&#9;&#9;&#9;&#9;c41.1,60.9,76.4,125.9,105,193.4c59.4,140.4,89.5,289.4,89.5,443.1s-30.1,302.7-89.5,443.1c-28.5,67.5-63.8,132.5-105,193.4&#10;&#9;&#9;&#9;&#9;&#9;&#9;&#9;c-40.7,60.3-87.5,116.9-139,168.4c-51.5,51.5-108.2,98.3-168.4,139c-60.9,41.1-125.9,76.4-193.4,105&#10;&#9;&#9;&#9;&#9;&#9;&#9;&#9;C1002.7,1808.2,853.7,1838.3,700,1838.3z M700-366.4C112-366.4-366.4,112-366.4,700S112,1766.4,700,1766.4&#10;&#9;&#9;&#9;&#9;&#9;&#9;&#9;S1766.4,1288,1766.4,700S1288-366.4,700-366.4z"/>
					</g>
				</g>
				<radialGradient id="XMLID_33_" cx="473.9746" cy="-69.0982" r="598.7562" gradientUnits="userSpaceOnUse">
					<stop offset="0" style="stop-color:#FFB300"/>
					<stop offset="0.4749" style="stop-color:#FF6600"/>
					<stop offset="1" style="stop-color:#FF00FF"/>
				</radialGradient>
				<path d="M 373 109.300003 A 142 142 0 0 1 231 251.300003 A 142 142 0 0 1 89 109.300003 A 142 142 0 0 1 231 -32.699997 A 142 142 0 0 1 373 109.300003 Z" id="XMLID_82_" clip-path="url(#XMLID_24_)" fill="url(#XMLID_33_)"/>
				
					<radialGradient id="XMLID_34_" cx="2057.7366" cy="-116.6663" r="1203.7498" gradientTransform="matrix(-0.7534 0.6575 -0.6575 -0.7534 2913.6616 301.9679)" gradientUnits="userSpaceOnUse">
					<stop offset="0" style="stop-color:#FFB300"/>
					<stop offset="0.4749" style="stop-color:#FF6600"/>
					<stop offset="1" style="stop-color:#FF00FF"/>
				</radialGradient>
				<path id="XMLID_145_" clip-path="url(#XMLID_24_)" fill="url(#XMLID_34_)" d="M1125.6,1125.7L1125.6,1125.7&#10;&#9;&#9;&#9;&#9;&#9;c41.1-35.9,103.5-31.6,139.3,9.5l261.7,299.8c35.9,41.1,31.6,103.5-9.5,139.3l0,0c-41.1,35.9-103.5,31.6-139.3-9.5L1116.1,1265&#10;&#9;&#9;&#9;&#9;&#9;C1080.3,1223.9,1084.5,1161.5,1125.6,1125.7z"/>
				<g id="XMLID_156_" clip-path="url(#XMLID_24_)">
					<path id="XMLID_22_" fill="#FFFFFF" d="M1505.9,1006.9c-1.7,0-3.4-0.7-4.7-2l-20-21c-1.5-1.5-3.4-2.4-5.5-2.4l0,0&#10;&#9;&#9;&#9;&#9;&#9;&#9;c-2.1,0-4.1,0.8-5.5,2.4l-9.8,10.3c-3.9,4.1-9.2,6.4-14.9,6.4c-5.7,0-11-2.3-14.9-6.4l-9.8-10.3c-1.5-1.5-3.4-2.4-5.5-2.4&#10;&#9;&#9;&#9;&#9;&#9;&#9;c-2.1,0-4.1,0.8-5.5,2.4l-9.8,10.3c-3.9,4.1-9.2,6.4-14.9,6.4c0,0,0,0,0,0c-5.7,0-11-2.3-14.9-6.4l-9.8-10.3&#10;&#9;&#9;&#9;&#9;&#9;&#9;c-1.5-1.5-3.4-2.4-5.5-2.4c0,0,0,0,0,0c-2.1,0-4.1,0.8-5.5,2.4l-9.8,10.3c-3.9,4.1-9.2,6.4-14.9,6.4s-11-2.3-14.9-6.4l-20-21&#10;&#9;&#9;&#9;&#9;&#9;&#9;c-2.5-2.6-2.4-6.7,0.2-9.2s6.7-2.4,9.2,0.2l20,21c1.5,1.5,3.4,2.4,5.5,2.4s4.1-0.8,5.5-2.4l9.8-10.3c3.9-4.1,9.2-6.4,14.9-6.4&#10;&#9;&#9;&#9;&#9;&#9;&#9;c0,0,0,0,0,0c5.7,0,11,2.3,14.9,6.4l9.8,10.3c1.5,1.5,3.4,2.4,5.5,2.4h0c2.1,0,4.1-0.8,5.5-2.4l9.8-10.3&#10;&#9;&#9;&#9;&#9;&#9;&#9;c3.9-4.1,9.2-6.4,14.9-6.4c0,0,0,0,0,0c5.7,0,11,2.3,14.9,6.4l9.8,10.3c1.5,1.5,3.4,2.4,5.5,2.4c2.1,0,4.1-0.8,5.5-2.4&#10;&#9;&#9;&#9;&#9;&#9;&#9;l9.8-10.3c3.9-4.1,9.2-6.4,14.9-6.4h0c5.7,0,11,2.3,14.9,6.4l20,21c2.5,2.6,2.4,6.7-0.2,9.2&#10;&#9;&#9;&#9;&#9;&#9;&#9;C1509.1,1006.3,1507.5,1006.9,1505.9,1006.9z"/>
				</g>
			</g>
		</g>
		
			<radialGradient id="XMLID_35_" cx="1624.8441" cy="1619.1833" r="783.0021" gradientTransform="matrix(0.6575 0.7534 -0.7534 0.6575 811.2624 -1204.3671)" gradientUnits="userSpaceOnUse">
			<stop offset="0" style="stop-color:#FFB300"/>
			<stop offset="0.4749" style="stop-color:#FF6600"/>
			<stop offset="1" style="stop-color:#FF00FF"/>
		</radialGradient>
		<path id="XMLID_135_" fill="url(#XMLID_35_)" d="M258.2,1289L258.2,1289c-23.3-26.7-20.6-67.3,6.2-90.6l195-170.2&#10;&#9;&#9;&#9;c26.7-23.3,67.3-20.6,90.6,6.2l0,0c23.3,26.7,20.6,67.3-6.2,90.6l-195,170.2C322.1,1318.5,281.6,1315.7,258.2,1289z"/>
		<g id="XMLID_137_">
			<path id="XMLID_21_" fill="#FFFFFF" d="M272,1020.9c-0.1,0-0.1,0-0.2,0c-3.6-0.1-6.4-3.1-6.3-6.6l0.7-29c0-2.1-0.7-4.1-2.2-5.6&#10;&#9;&#9;&#9;&#9;c-1.5-1.5-3.5-2.3-5.6-2.2l-14.2,0.3c-5.7,0.1-11-2-15.1-6c-4-4-6.2-9.4-6-15.1l0.3-14.2c0-2.1-0.7-4.1-2.2-5.6&#10;&#9;&#9;&#9;&#9;c-1.5-1.5-3.5-2.3-5.6-2.2l-14.2,0.3c-5.7,0.1-11-2-15.1-6c-4-4-6.2-9.4-6-15.1l0.3-14.2c0-2.1-0.7-4.1-2.2-5.6&#10;&#9;&#9;&#9;&#9;c-1.5-1.5-3.5-2.3-5.6-2.2l-14.2,0.3c-5.7,0.1-11-2-15.1-6c-4-4-6.2-9.4-6-15.1l0.7-29c0.1-3.5,3-6.3,6.5-6.3c0.1,0,0.1,0,0.2,0&#10;&#9;&#9;&#9;&#9;c3.6,0.1,6.4,3.1,6.3,6.6l-0.7,29c0,2.1,0.7,4.1,2.2,5.6c1.5,1.5,3.4,2.3,5.6,2.2l14.2-0.3c5.7-0.1,11,2,15.1,6&#10;&#9;&#9;&#9;&#9;c4,4,6.2,9.4,6,15.1l-0.3,14.2c0,2.1,0.7,4.1,2.2,5.6c1.5,1.5,3.4,2.3,5.6,2.2l14.2-0.3c5.7-0.1,11,2,15.1,6c4,4,6.2,9.4,6,15.1&#10;&#9;&#9;&#9;&#9;L236,957c0,2.1,0.7,4.1,2.2,5.6c1.5,1.5,3.4,2.3,5.6,2.2l14.2-0.3c5.7-0.2,11,2,15.1,6c4,4,6.2,9.4,6,15.1l-0.7,29&#10;&#9;&#9;&#9;&#9;C278.4,1018.1,275.5,1020.9,272,1020.9z"/>
		</g>
		<g id="XMLID_138_">
			<path id="XMLID_20_" fill="#FFFFFF" d="M805.2,204.6c-0.2,0-0.3,0-0.5,0l-29-0.7c-3.6-0.1-6.4-3.1-6.3-6.6&#10;&#9;&#9;&#9;&#9;c0.1-3.6,3.1-6.4,6.6-6.3l29,0.7c2.1,0,4.1-0.7,5.6-2.2s2.3-3.5,2.2-5.6l-0.3-14.2c-0.1-5.7,2-11,6-15.1c4-4,9.4-6.2,15.1-6&#10;&#9;&#9;&#9;&#9;l14.2,0.3c2.1,0,4.1-0.7,5.6-2.2c1.5-1.5,2.3-3.5,2.2-5.6l-0.3-14.2c-0.1-5.7,2-11,6-15.1s9.4-6.2,15.1-6l14.2,0.3&#10;&#9;&#9;&#9;&#9;c2.1,0,4.1-0.7,5.6-2.2s2.3-3.5,2.2-5.6L898,84c-0.1-5.7,2-11,6-15.1c4-4,9.4-6.2,15.1-6l29,0.7c3.6,0.1,6.4,3.1,6.3,6.6&#10;&#9;&#9;&#9;&#9;c-0.1,3.6-3.1,6.4-6.6,6.3l-29-0.7c-2.1-0.1-4.1,0.7-5.6,2.2s-2.3,3.5-2.2,5.6l0.3,14.2c0.1,5.7-2,11-6,15.1c-4,4-9.4,6.2-15.1,6&#10;&#9;&#9;&#9;&#9;l-14.2-0.3c-2.1-0.1-4.1,0.7-5.6,2.2s-2.3,3.5-2.2,5.6l0.3,14.2c0.1,5.7-2,11-6,15.1c-4,4-9.4,6.2-15.1,6l-14.2-0.3&#10;&#9;&#9;&#9;&#9;c-2.1,0-4.1,0.7-5.6,2.2s-2.3,3.5-2.2,5.6l0.3,14.2c0.1,5.7-2,11-6,15.1C815.8,202.4,810.7,204.6,805.2,204.6z"/>
		</g>
		<g id="XMLID_136_">
			<path id="XMLID_17_" fill="#FFFFFF" d="M861.9,1158.2c-17.4,0-31.5-14.1-31.5-31.5s14.1-31.5,31.5-31.5s31.5,14.1,31.5,31.5&#10;&#9;&#9;&#9;&#9;S879.3,1158.2,861.9,1158.2z M861.9,1108.2c-10.2,0-18.5,8.3-18.5,18.5s8.3,18.5,18.5,18.5s18.5-8.3,18.5-18.5&#10;&#9;&#9;&#9;&#9;S872.1,1108.2,861.9,1108.2z"/>
		</g>
		<g id="XMLID_158_">
			<path id="XMLID_14_" fill="#FFFFFF" d="M1321.4,306.5c-17.4,0-31.5-14.1-31.5-31.5s14.1-31.5,31.5-31.5s31.5,14.1,31.5,31.5&#10;&#9;&#9;&#9;&#9;S1338.7,306.5,1321.4,306.5z M1321.4,256.5c-10.2,0-18.5,8.3-18.5,18.5s8.3,18.5,18.5,18.5s18.5-8.3,18.5-18.5&#10;&#9;&#9;&#9;&#9;S1331.6,256.5,1321.4,256.5z"/>
		</g>
		<g id="XMLID_139_">
			<path id="XMLID_11_" fill="#FFFFFF" d="M110.6,532.4c-15.5,0-28.1-12.6-28.1-28.1c0-15.5,12.6-28.1,28.1-28.1&#10;&#9;&#9;&#9;&#9;c15.5,0,28.1,12.6,28.1,28.1C138.7,519.8,126.1,532.4,110.6,532.4z M110.6,489.3c-8.3,0-15.1,6.8-15.1,15.1s6.8,15.1,15.1,15.1&#10;&#9;&#9;&#9;&#9;s15.1-6.8,15.1-15.1S118.9,489.3,110.6,489.3z"/>
		</g>
		<radialGradient id="XMLID_36_" cx="1097.9006" cy="395.8705" r="180.2776" gradientUnits="userSpaceOnUse">
			<stop offset="0" style="stop-color:#FFB300"/>
			<stop offset="0.4749" style="stop-color:#FF6600"/>
			<stop offset="1" style="stop-color:#FF00FF"/>
		</radialGradient>
		<path d="M 1109.79995 482.799988 A 55.599998 55.599998 0 0 1 1054.199951 538.399986 A 55.599998 55.599998 0 0 1 998.599953 482.799988 A 55.599998 55.599998 0 0 1 1054.199951 427.199989 A 55.599998 55.599998 0 0 1 1109.79995 482.799988 Z" id="XMLID_140_" fill="url(#XMLID_36_)"/>
		
			<radialGradient id="XMLID_37_" cx="880.2495" cy="1225.7933" r="153.681" gradientTransform="matrix(0.6599 0.7514 -0.7514 0.6599 768.4446 -717.1727)" gradientUnits="userSpaceOnUse">
			<stop offset="0" style="stop-color:#FFB300"/>
			<stop offset="0.4749" style="stop-color:#FF6600"/>
			<stop offset="1" style="stop-color:#FF00FF"/>
		</radialGradient>
		<path d="M 272.6000061035156 759.7999877929688 L 379.79998779296875 738.4000244140625 L 344.79998779296875 841.9000244140625 Z" id="XMLID_152_" fill="url(#XMLID_37_)"/>
		
			<radialGradient id="XMLID_38_" cx="953.2869" cy="141.1064" r="239.4122" gradientTransform="matrix(0.6599 0.7514 -0.7514 0.6599 768.4446 -717.1727)" gradientUnits="userSpaceOnUse">
			<stop offset="0" style="stop-color:#FFB300"/>
			<stop offset="0.4749" style="stop-color:#FF6600"/>
			<stop offset="1" style="stop-color:#FF00FF"/>
		</radialGradient>
		<path d="M 1049.0999755859375 102.69999694824219 L 1216 69.4000015258789 L 1161.4000244140625 230.60000610351562 Z" id="XMLID_157_" fill="url(#XMLID_38_)"/>
		
		
		
		
	</g>

<clipPath id="path-1">
					<use overflow="visible" xlink:href="#XMLID_484_"/>
				</clipPath><g id="g-1" transform="matrix(0.49173721671104426, 0.8707440495491028, -0.8707440495491028, 0.49173721671104426, 1343.916777818648, 739.0577005363781)">
			<path id="path-2" fill="#FFFFFF" d="M272,1020.9c-0.1,0-0.1,0-0.2,0c-3.6-0.1-6.4-3.1-6.3-6.6l0.7-29c0-2.1-0.7-4.1-2.2-5.6&#10;&#9;&#9;&#9;&#9;c-1.5-1.5-3.5-2.3-5.6-2.2l-14.2,0.3c-5.7,0.1-11-2-15.1-6c-4-4-6.2-9.4-6-15.1l0.3-14.2c0-2.1-0.7-4.1-2.2-5.6&#10;&#9;&#9;&#9;&#9;c-1.5-1.5-3.5-2.3-5.6-2.2l-14.2,0.3c-5.7,0.1-11-2-15.1-6c-4-4-6.2-9.4-6-15.1l0.3-14.2c0-2.1-0.7-4.1-2.2-5.6&#10;&#9;&#9;&#9;&#9;c-1.5-1.5-3.5-2.3-5.6-2.2l-14.2,0.3c-5.7,0.1-11-2-15.1-6c-4-4-6.2-9.4-6-15.1l0.7-29c0.1-3.5,3-6.3,6.5-6.3c0.1,0,0.1,0,0.2,0&#10;&#9;&#9;&#9;&#9;c3.6,0.1,6.4,3.1,6.3,6.6l-0.7,29c0,2.1,0.7,4.1,2.2,5.6c1.5,1.5,3.4,2.3,5.6,2.2l14.2-0.3c5.7-0.1,11,2,15.1,6&#10;&#9;&#9;&#9;&#9;c4,4,6.2,9.4,6,15.1l-0.3,14.2c0,2.1,0.7,4.1,2.2,5.6c1.5,1.5,3.4,2.3,5.6,2.2l14.2-0.3c5.7-0.1,11,2,15.1,6c4,4,6.2,9.4,6,15.1&#10;&#9;&#9;&#9;&#9;L236,957c0,2.1,0.7,4.1,2.2,5.6c1.5,1.5,3.4,2.3,5.6,2.2l14.2-0.3c5.7-0.2,11,2,15.1,6c4,4,6.2,9.4,6,15.1l-0.7,29&#10;&#9;&#9;&#9;&#9;C278.4,1018.1,275.5,1020.9,272,1020.9z"/>
		</g></svg>